<?xml version="1.0" encoding="UTF-8"?>
<svg width="600px" height="600px" viewBox="0 0 600 600" version="1.1" xmlns="http://www.w3.org/2000/svg" xmlns:xlink="http://www.w3.org/1999/xlink">
    <title>drivers/media/assets/icon</title>
    <g id="/drivers/media/assets/icon" stroke="none" stroke-width="1" fill="none" fill-rule="evenodd">
        <g id="Group" transform="translate(131.000000, 54.000000)" fill="#63BD5C">
            <path d="M274.319318,0 L62.6806822,0 C28.1202938,0 0,28.1029375 0,62.6467187 L0,429.353281 C0,463.897063 28.1202938,492 62.6806822,492 L274.319318,492 C308.879706,492 337,463.897063 337,429.353281 L337,62.6467187 C337,28.1029375 308.879706,0 274.319318,0 Z M306.014736,429.353281 C306.014736,446.820562 291.794997,461.029625 274.319318,461.029625 L62.6806822,461.029625 C45.2050035,461.029625 30.9852642,446.820562 30.9852642,429.353281 L30.9852642,62.6467187 C30.9852642,45.1794375 45.2050035,30.970375 62.6806822,30.970375 L274.319318,30.970375 C291.794997,30.970375 306.014736,45.1845625 306.014736,62.6467187 L306.014736,429.353281 Z" id="Fill-1"></path>
            <path d="M167.502569,206 C101.058308,206 47,260.053169 47,326.502569 C47,392.946831 101.058308,447 167.502569,447 C233.946831,447 288,392.946831 288,326.502569 C288,260.053169 233.946831,206 167.502569,206 Z M167.502569,415.945829 C118.181012,415.945829 78.0541713,375.822842 78.0541713,326.502569 C78.0541713,277.181012 118.181012,237.054171 167.502569,237.054171 C216.824127,237.054171 256.950968,277.181012 256.950968,326.502569 C256.950968,375.822842 216.824127,415.945829 167.502569,415.945829 Z" id="Fill-4"></path>
            <path d="M168,275 C139.328273,275 116,298.327127 116,327.002555 C116,355.672873 139.328273,379 168,379 C196.671727,379 220,355.672873 220,327.002555 C220,298.327127 196.671727,275 168,275 Z M168,348.123683 C156.353748,348.123683 146.877834,338.648235 146.877834,327.002555 C146.877834,315.351765 156.348638,305.876317 168,305.876317 C179.646252,305.876317 189.122166,315.351765 189.122166,327.002555 C189.122166,338.648235 179.646252,348.123683 168,348.123683 Z" id="Fill-5"></path>
            <path d="M168,169 C196.671727,169 220,145.674151 220,116.998723 C220,88.3271267 196.671727,65 168,65 C139.328273,65 116,88.3271267 116,116.998723 C116,145.674151 139.328273,169 168,169 Z M168,95.8763173 C179.646252,95.8763173 189.122166,105.351765 189.122166,117.002555 C189.122166,128.649512 179.646252,138.12496 168,138.12496 C156.348638,138.12496 146.877834,128.649512 146.877834,117.002555 C146.877834,105.351765 156.353748,95.8763173 168,95.8763173 Z" id="Fill-6"></path>
        </g>
    </g>
</svg>