<?xml version="1.0" encoding="UTF-8"?>
<svg width="600px" height="600px" viewBox="0 0 600 600" version="1.1" xmlns="http://www.w3.org/2000/svg" xmlns:xlink="http://www.w3.org/1999/xlink">
    <title>drivers/meteo-sensors/assets/icon</title>
    <g id="/drivers/meteo-sensors/assets/icon" stroke="none" stroke-width="1" fill="none" fill-rule="evenodd">
        <path d="M480,446.851351 C480,465.681892 464.658537,481 445.853659,481 L153.170732,481 C134.341463,481 119,465.681892 119,446.851351 L119,154.148649 C119,135.318108 134.341463,120 153.170732,120 L445.853659,120 C464.658537,120 480,135.318108 480,154.148649 L480,446.851351 Z M510,285.348837 L510,216.976744 L510,187.674419 L510,153.488372 C510,118.472093 481.526252,90 446.532357,90 L153.492063,90 C118.473748,90 90,118.472093 90,153.488372 L90,187.674419 L90,216.976744 L90,285.348837 L90,314.651163 L90,383.023256 L90,412.325581 L90,446.511628 C90,481.527907 118.473748,510 153.492063,510 L446.532357,510 C481.526252,510 510,481.527907 510,446.511628 L510,412.325581 L510,383.023256 L510,314.651163 L510,285.348837 Z M382,373.294118 C382,378.656618 377.632995,383 372.295545,383 L226.728716,383 C221.367005,383 217,378.656618 217,373.294118 L217,227.705882 C217,222.343382 221.367005,218 226.728716,218 L372.295545,218 C377.632995,218 382,222.343382 382,227.705882 L382,373.294118 Z M372.889771,188 L226.134689,188 C204.561691,188 187,205.559783 187,227.130435 L187,373.869565 C187,395.440217 204.561691,413 226.134689,413 L372.889771,413 C394.438309,413 412,395.440217 412,373.869565 L412,227.130435 C412,205.559783 394.438309,188 372.889771,188 L372.889771,188 Z" id="Processor" fill="#63BD5C"></path>
    </g>
</svg>