<?xml version="1.0" encoding="UTF-8"?>
<svg width="600px" height="600px" viewBox="0 0 600 600" version="1.1" xmlns="http://www.w3.org/2000/svg" xmlns:xlink="http://www.w3.org/1999/xlink">
    <title>drivers/air-humidifier/assets/icon</title>
    <g id="/drivers/air-humidifier/assets/icon" stroke="none" stroke-width="1" fill="none" fill-rule="evenodd">
        <path d="M317,440 C317,449.384 309.384,457 300,457 C290.616,457 283,449.384 283,440 C283,430.616 290.616,423 300,423 C309.384,423 317,430.616 317,440 L317,440 Z M299.5,481 C276.623125,481 258,462.376875 258,439.5 C258,416.623125 276.623125,398 299.5,398 C322.376875,398 341,416.623125 341,439.5 C341,462.376875 322.376875,481 299.5,481 L299.5,481 Z M300.5,378 C266.038194,378 238,405.813889 238,440 C238,474.186111 266.038194,502 300.5,502 C334.961806,502 363,474.186111 363,440 C363,405.813889 334.961806,378 300.5,378 L300.5,378 Z M428,510.813873 C428,524.14304 417.094865,535 403.689189,535 L195.310811,535 C181.905135,535 171,524.14304 171,510.813873 L171,234.203415 C171,220.85696 181.905135,210 195.310811,210 L403.689189,210 C417.094865,210 428,220.85696 428,234.203415 L428,510.813873 Z M404.802326,188 C429.730581,188 450,208.201358 450,233.024621 L450,233.024621 L450,509.992689 C450,534.798642 429.730581,555 404.802326,555 L404.802326,555 L196.197674,555 C171.269419,555 151,534.798642 151,509.992689 L151,509.992689 L151,233.024621 C151,208.201358 171.269419,188 196.197674,188 L196.197674,188 Z M228.884183,65.5915939 C231.534363,60.5278437 237.828542,58.5538394 242.971985,61.1286276 C248.115428,63.7549116 250.137934,69.9515686 247.487754,75.0153188 C243.355564,82.9285013 242.849937,90.0349168 245.744214,99.5616332 C246.406759,101.741621 247.54006,103.784286 248.63849,105.895612 C251.602508,111.577312 255.263942,118.632231 254.984975,128.261939 C254.583961,142.938232 248.934892,152.155974 242.884808,159.931835 C240.827431,162.592449 237.72393,164 234.568123,164 C232.353827,164 230.122096,163.296225 228.221637,161.871508 C223.636127,158.404127 222.764357,151.932826 226.268873,147.435529 C231.150784,141.135881 233.835836,136.140791 234.079932,127.678321 C234.201979,123.318346 232.371262,119.782303 230.017484,115.319337 C228.308814,112.006443 226.704758,108.79654 225.693505,105.449316 C221.264913,90.8931795 222.276166,78.2080562 228.884183,65.5915939 Z M350.867704,65.5915939 C353.517794,60.5278437 359.829193,58.5538394 364.955026,61.1286276 C370.098293,63.7549116 372.120731,69.9515686 369.488075,75.0153188 C365.338592,82.9285013 364.832982,90.0349168 367.72716,99.5616332 C368.389683,101.724455 369.522945,103.767121 370.638772,105.895612 C373.585254,111.560146 377.263998,118.615066 376.985041,128.261939 C376.584041,142.938232 370.935164,152.155974 364.885287,159.931835 C362.82798,162.592449 359.724585,164 356.568885,164 C354.354665,164 352.12301,163.296225 350.222616,161.871508 C345.619828,158.404127 344.765522,151.932826 348.269918,147.435529 C353.151663,141.135881 355.836623,136.140791 356.08071,127.678321 C356.202754,123.318346 354.354665,119.765138 352.018401,115.302172 C350.30979,111.989278 348.705788,108.813706 347.694569,105.449316 C343.266129,90.8931795 344.277348,78.2080562 350.867704,65.5915939 Z M289.884319,51.583853 C292.515479,46.5359906 298.840716,44.544317 303.963635,47.1369266 C309.086554,49.7295362 311.107842,55.9449314 308.476683,61.0099634 C304.346983,68.9423185 303.824236,76.0505329 306.716769,85.5624913 C307.378915,87.7258609 308.511533,89.7690433 309.626726,91.9152433 C312.571534,97.5983809 316.248187,104.637917 315.986813,114.252893 C315.568616,128.96724 309.905525,138.187315 303.876511,145.982314 C301.820373,148.626432 298.701317,150 295.564835,150 C293.351874,150 291.104062,149.313216 289.204748,147.888139 C284.622001,144.43705 283.750756,137.96411 287.270585,133.431336 C292.149556,127.164432 294.83299,122.150909 295.076938,113.703466 C295.198913,109.359557 293.351874,105.80545 291.016938,101.307014 C289.309298,98.0276209 287.706207,94.7997361 286.678138,91.4516641 C282.26964,76.8918433 283.280284,64.2206786 289.884319,51.583853 Z" id="Speaker" fill="#63BD5C"></path>
    </g>
</svg>