<?xml version="1.0" encoding="UTF-8"?>
<svg width="600px" height="600px" viewBox="0 0 600 600" version="1.1" xmlns="http://www.w3.org/2000/svg" xmlns:xlink="http://www.w3.org/1999/xlink">
    <title>drivers/tv/assets/icon</title>
    <g id="/drivers/tv/assets/icon" stroke="none" stroke-width="1" fill="none" fill-rule="evenodd">
        <path d="M386.78898,488.120035 C392.124676,493.094956 392.432082,501.437855 387.469666,506.786996 C384.878669,509.582638 381.343496,510.991465 377.830281,510.991465 C374.602515,510.991465 371.396705,509.82478 368.871582,507.469397 C331.411923,472.600922 268.591241,472.600922 231.131582,507.469397 C225.817844,512.422305 217.495915,512.136137 212.511541,506.786996 C207.571082,501.437855 207.878488,493.094956 213.214184,488.120035 C236.818599,466.107109 267.647064,454 299.990603,454 C332.3561,454 363.162607,466.107109 386.78898,488.120035 L386.78898,488.120035 Z M507,369.290546 C507,388.994591 490.990532,405 471.281489,405 L128.740532,405 C109.031489,405 93,388.994591 93,369.290546 L93,151.731469 C93,132.027424 109.031489,116 128.740532,116 L471.281489,116 C490.990532,116 507,132.027424 507,151.731469 L507,369.290546 Z M470.969245,90 L129.052736,90 C94.8281132,90 67,117.883308 67,152.175811 L67,369.824189 C67,404.116692 94.8281132,432 129.052736,432 L470.969245,432 C505.171887,432 533,404.116692 533,369.824189 L533,152.175811 C533,117.883308 505.171887,90 470.969245,90 L470.969245,90 Z" id="System" fill="#63BD5C"></path>
    </g>
</svg>