<?xml version="1.0" encoding="UTF-8"?>
<svg width="600px" height="600px" viewBox="0 0 600 600" version="1.1" xmlns="http://www.w3.org/2000/svg" xmlns:xlink="http://www.w3.org/1999/xlink">
    <title>drivers/air-purifier/assets/icon</title>
    <g id="/drivers/air-purifier/assets/icon" stroke="none" stroke-width="1" fill="none" fill-rule="evenodd">
        <path d="M386,300.5 C386,292.476667 379.519259,286 371.544815,286 L71.4310926,286 C63.4566491,286 57,292.476667 57,300.5 C57,308.523333 63.4566491,315 71.4310926,315 L371.544815,315 C379.519259,315 386,308.523333 386,300.5 M472.415296,360 L260.485943,360 C252.494531,360 246,366.439703 246,374.447124 C246,382.454545 252.494531,388.918367 260.485943,388.918367 L472.415296,388.918367 C495.930811,388.918367 515.052256,408.020408 515.052256,431.512059 C515.052256,454.955473 495.930811,474.057514 472.415296,474.057514 L445.881876,474.057514 C437.890464,474.057514 431.420076,480.545455 431.420076,488.552876 C431.420076,496.536178 437.890464,503 445.881876,503 L472.415296,503 C511.889492,503 544,470.922078 544,431.512059 C544,392.077922 511.889492,360 472.415296,360 M151,226.552876 C151,218.545455 157.490052,212.081633 165.475952,212.081633 L387.464672,212.081633 C410.963967,212.081633 430.072223,192.979592 430.072223,169.487941 C430.072223,146.044527 410.963967,126.942486 387.464672,126.942486 L336.822967,126.942486 C328.837067,126.942486 322.371142,120.454545 322.371142,112.447124 C322.371142,104.463822 328.837067,98 336.822967,98 L387.464672,98 C426.91164,98 459,130.077922 459,169.487941 C459,208.922078 426.91164,241 387.464672,241 L165.475952,241 C157.490052,241 151,234.560297 151,226.552876" id="Windy" fill="#63BD5C" transform="translate(300.500000, 300.500000) scale(1, -1) translate(-300.500000, -300.500000) "></path>
    </g>
</svg>