<?xml version="1.0" encoding="UTF-8"?>
<svg width="600px" height="600px" viewBox="0 0 600 600" version="1.1" xmlns="http://www.w3.org/2000/svg" xmlns:xlink="http://www.w3.org/1999/xlink">
    <title>drivers/switch/assets/icon</title>
    <g id="/drivers/switch/assets/icon" stroke="none" stroke-width="1" fill="none" fill-rule="evenodd">
        <path d="M350.951202,248.24972 C353.450543,252.319731 353.679841,257.378502 351.547375,261.678457 L311.305694,342.365855 C308.898072,347.194682 304.036969,350 298.992428,350 C296.928752,350 294.842146,349.517117 292.847259,348.528358 C286.060058,345.125184 283.285561,336.847195 286.679161,330.017855 L316.992268,269.289608 L258.750746,269.289608 C253.981362,269.289608 249.555924,266.829206 247.056583,262.759195 C244.534312,258.689183 244.327944,253.607418 246.46041,249.330457 L286.679161,168.620065 C290.095691,161.813719 298.327465,159.054389 305.160526,162.457562 C311.947727,165.860735 314.722224,174.138724 311.305694,180.968065 L281.015517,241.719306 L339.234109,241.719306 C344.003493,241.719306 348.451862,244.179708 350.951202,248.24972 L350.951202,248.24972 Z M364.220333,414.771344 C362.610661,415.070165 361.069974,415.667806 359.71325,416.472323 C340.926072,423.276236 320.644198,427 299.488502,427 C278.355802,427 258.096923,423.276236 239.33274,416.495309 C237.953021,415.667806 236.412334,415.070165 234.779667,414.771344 C170.507742,389.463544 125,327.584707 125,255.5 C125,160.95778 203.299071,84 299.488502,84 C395.723924,84 474,160.95778 474,255.5 C474,327.607693 428.492258,389.463544 364.220333,414.771344 L364.220333,414.771344 Z M353,483.555221 C353,501.428715 338.344516,516 320.344516,516 L277.609032,516 C259.655484,516 245,501.428715 245,483.555221 L245,447.023092 C262.187097,451.641566 280.303226,454.135542 298.976774,454.135542 C317.673548,454.135542 335.766452,451.641566 353,447 L353,483.555221 Z M300.011492,57 C188.651192,57 98,146.249257 98,255.94429 C98,337.29091 147.830574,407.380867 219.013825,438.187367 L219.013825,484.178876 C219.013825,517.190764 245.882801,544 278.865677,544 L321.157308,544 C354.186152,544 381.032144,517.190764 381.032144,484.178876 L381.032144,438.187367 C452.169426,407.380867 502,337.29091 502,255.94429 C502,146.249257 411.394777,57 300.011492,57 L300.011492,57 Z" id="Blub" fill="#63BD5C"></path>
    </g>
</svg>