<?xml version="1.0" encoding="UTF-8"?>
<svg width="600px" height="600px" viewBox="0 0 600 600" version="1.1" xmlns="http://www.w3.org/2000/svg" xmlns:xlink="http://www.w3.org/1999/xlink">
    <title>drivers/light/assets/icon</title>
    <g id="/drivers/light/assets/icon" stroke="none" stroke-width="1" fill="none" fill-rule="evenodd">
        <path d="M502,318.331754 C502,323.67346 497.639545,328 492.310101,328 L104.714124,328 C99.3604547,328 95,323.67346 95,318.331754 L95,276.033175 C95,219.304739 117.868163,166.685308 159.365157,127.867299 C197.494911,92.2156398 246.404678,73 298.366764,73 C302.896792,73 307.499494,73.1450237 312.077972,73.4350711 C418.569966,80.3236967 502,172.582938 502,283.477725 L502,318.331754 Z M335.348221,496 C355.647994,496 372.895534,509.44 379,528 L219,528 C225.104466,509.44 242.37623,496 262.676003,496 L335.348221,496 Z M314.940257,43.497288 C250.030627,39.3351242 187.906297,61.4042717 140.507735,105.784553 C93.7631127,149.53567 67,211.314763 67,275.295932 L67,317.643528 C67,338.986717 84.3657482,356.361331 105.752018,356.361331 L284.980103,356.361331 L284.980103,466.465082 L263.182093,466.465082 C221.790093,466.465082 188.100057,500.125371 188.100057,541.480824 C188.100057,549.514768 194.59102,556 202.632064,556 L396.392156,556 C404.40898,556 410.899943,549.514768 410.899943,541.480824 C410.899943,500.125371 377.234127,466.465082 335.842127,466.465082 L314.019897,466.465082 L314.019897,356.361331 L493.272202,356.361331 C514.610032,356.361331 532,338.986717 532,317.643528 L532,282.749109 C532,156.456477 436.670035,51.3618416 314.940257,43.497288 L314.940257,43.497288 Z" id="Bed-lamp" fill="#63BD5C"></path>
    </g>
</svg>