<?xml version="1.0" encoding="UTF-8"?>
<svg width="600px" height="600px" viewBox="0 0 600 600" version="1.1" xmlns="http://www.w3.org/2000/svg" xmlns:xlink="http://www.w3.org/1999/xlink">
    <title>drivers/fan/assets/icon</title>
    <g id="/drivers/fan/assets/icon" stroke="none" stroke-width="1" fill="none" fill-rule="evenodd">
        <path d="M340.113407,380.632387 C385.439236,398.647232 386.127735,436.104117 386.709089,472.418054 C387.090045,495.114017 387.439255,516.559693 402.822338,528.18397 C408.969222,532.710043 416.457389,535.055571 424.082462,534.838908 C429.757119,534.759398 435.392093,533.928525 440.848494,532.376104 C482.979848,521.008245 522.236175,482.915285 545.875289,430.458949 C569.05805,379.042198 572.46086,324.884361 554.788072,289.134941 C534.861295,248.650735 469.509482,244.79254 360.629476,277.464946 C352.583764,264.413476 340.857462,254.047436 326.936694,247.672769 C319.690594,199.189916 351.738518,179.894969 382.834053,161.244048 C402.219158,149.605858 420.556634,138.611693 422.919752,119.47179 C423.719363,106.014821 418.02288,92.985216 407.614051,84.4459049 C376.804233,53.5644485 324.333495,38.50139 267.188109,44.1783621 C211.074479,49.7460089 162.454968,73.885067 140.280154,107.187585 C115.408885,144.674286 144.813927,203.360185 227.374238,281.579559 C221.227354,292.738705 217.963434,305.255474 217.880099,317.996858 C218.003117,320.580914 218.267008,323.166958 218.653916,325.729149 C180.413473,356.205107 147.675065,338.074973 115.96643,320.433822 C96.1249709,309.393939 77.3073312,299.004047 59.6285913,306.503772 C47.561016,312.560402 39.1125227,324.045537 36.9101208,337.39318 C25.6719185,379.616654 38.9954581,432.732918 72.5414128,479.500355 C105.41871,525.311692 150.542156,555.344386 190.318329,557.890675 C191.427466,557.952294 192.53462,558 193.643757,558 C237.201712,558 272.094902,503.158382 297.539589,395.136892 C312.855211,394.687663 327.688686,389.632852 340.113407,380.632387 Z M253,317.497016 C253,293.468615 272.475029,274 296.496021,274 C320.524971,274 340,293.468615 340,317.497016 C340,341.517459 320.524971,361 296.496021,361 C272.482987,360.968169 253.023874,341.509501 253,317.497016 Z M524.239613,303.651246 C537.325209,330.181316 533.646249,374.350975 514.834961,416.165104 C495.313663,459.544277 464.323132,490.661954 431.910598,499.428983 C429.066593,500.143806 426.176973,500.673452 423.263553,501 C420.861817,491.402662 419.901916,481.500678 420.421532,471.622587 C419.8563,437.096063 418.779386,381.795881 363,353.499662 C368.987483,342.446794 372.156744,330.079767 372.242025,317.495705 C372.117079,314.672256 371.839421,311.856771 371.397153,309.063189 C471.064256,279.351263 516.130034,287.106789 524.239613,303.651246 Z M168.92013,126.097484 C185.360345,101.42022 225.458817,82.5514757 271.087016,78.039039 C318.332026,73.3417316 360.601472,84.7560097 384.359042,108.532774 C386.375089,110.629964 388.262029,112.850401 390,115.188121 C382.922981,122.020388 374.868726,127.767284 366.101406,132.239963 C336.56384,149.943823 289.360542,178.441749 292.906004,241.013542 C277.43508,241.556227 262.490514,246.782304 250.04664,256 C174.708071,184.451043 158.305595,142.054016 168.92013,126.097484 Z M192.374977,522.997884 C162.999692,521.131234 126.828897,496.031207 100.183296,459.079432 C72.5558796,420.707423 61.2036381,378.523101 69.8341129,346.254742 C70.6219406,343.432051 71.6275097,340.668619 72.8330049,338 C82.2592252,340.885901 91.275696,344.966852 99.6567579,350.144091 C129.665473,366.772093 177.752657,393.215318 229.846282,359.234382 C238.049192,372.212046 249.93391,382.451956 264,388.646469 C239.983131,489.086082 210.956231,523.677384 192.36706,522.989983 L192.374977,522.997884 Z" id="Fill-3" fill="#63BD5C" transform="translate(299.500000, 300.500000) scale(1, -1) translate(-299.500000, -300.500000) "></path>
    </g>
</svg>