<?xml version="1.0" encoding="UTF-8"?>
<svg width="600px" height="600px" viewBox="0 0 600 600" version="1.1" xmlns="http://www.w3.org/2000/svg" xmlns:xlink="http://www.w3.org/1999/xlink">
    <title>assets/icon</title>
    <g id="/assets/icon" stroke="none" stroke-width="1" fill="none" fill-rule="evenodd">
        <g id="LogoAthomHomey" transform="translate(54.000000, 224.000000)" fill-rule="nonzero">
            <path d="M-4.75059561e-15,53.4334646 C0.00451629251,52.5511808 0.372071631,51.7096725 1.01625208,51.1067822 C1.66855941,50.4378743 2.56931076,50.0698253 3.50339533,50.0897014 C4.43747989,50.0698253 5.33823125,50.4378743 5.99053857,51.1067822 C6.63471902,51.7096725 7.00227436,52.5511808 7.00679065,53.4334646 L7.00679065,144.628717 L60.1728205,144.628717 C60.937449,144.630972 61.6693711,144.93915 62.2053246,145.484508 C63.3872859,146.70759 63.3872859,148.647356 62.2053246,149.870438 C61.6872949,150.444654 60.9460575,150.766507 60.1728205,150.753383 L3.50339533,150.753383 C2.57166217,150.761196 1.67562186,150.395072 1.01625208,149.736721 C0.375732175,149.120183 0.00959149406,148.272279 -4.75059561e-15,147.383295 L-4.75059561e-15,53.4334646 Z" id="Path" stroke="#0A0809" fill="#1D1D1B"></path>
            <path d="M160.701546,137.247518 C151.153976,147.01061 138.010946,152.416757 124.357162,152.197121 C110.738185,152.441031 97.6204868,147.062387 88.0930092,137.327748 C78.3376751,127.896264 72.925406,114.844853 73.1434062,101.277543 C72.9750912,87.6486749 78.4427459,74.5553355 88.25347,65.09362 C97.7124255,55.3399765 110.771362,49.913263 124.357162,50.0905301 C137.992354,49.9007066 151.105717,55.3259253 160.621315,65.09362 C170.438381,74.5488641 175.89917,87.6489491 175.704636,101.277543 C175.912184,114.83007 170.477725,127.859207 160.701546,137.247518 L160.701546,137.247518 Z M155.647029,69.8539587 C147.549055,61.2315304 136.184229,56.433048 124.357162,56.6426817 C112.600243,56.4735859 101.317138,61.270362 93.2812435,69.8539587 C84.927144,78.1603748 80.2957388,89.4976686 80.4443751,101.277543 C80.2794315,113.044794 84.9144556,124.371634 93.2812435,132.64764 C101.337877,141.189 112.617197,145.94534 124.357162,145.751943 C136.167271,145.98587 147.528303,141.227831 155.647029,132.64764 C164.031527,124.381416 168.677883,113.05049 168.510641,101.277543 C168.661459,89.4920081 164.018757,78.1506894 155.647029,69.8539587 L155.647029,69.8539587 Z" id="Shape" stroke="#0A0809" fill="#1D1D1B"></path>
            <path d="M278.132148,137.247518 C258.050776,157.121387 225.711957,157.121387 205.630585,137.247518 C195.857274,127.826175 190.433539,114.77047 190.654239,101.197312 C190.464967,87.5803996 195.902856,74.4888282 205.684072,65.0133896 C225.692794,45.0140162 258.123427,45.0140162 278.132148,65.0133896 C287.949213,74.4686337 293.410002,87.5687187 293.215468,101.197312 C293.424547,114.789644 287.958464,127.853971 278.132148,137.247518 L278.132148,137.247518 Z M273.104375,69.8539587 C264.937159,61.4123162 253.694064,56.6460867 241.948225,56.6460867 C230.202386,56.6460867 218.959291,61.4123162 210.792076,69.8539587 C202.437976,78.1603748 197.806571,89.4976686 197.955208,101.277543 C197.790264,113.044794 202.425288,124.371634 210.792076,132.64764 C218.985277,141.041342 230.218657,145.7741 241.948225,145.7741 C253.677793,145.7741 264.911174,141.041342 273.104375,132.64764 C281.471162,124.371634 286.106187,113.044794 285.941243,101.277543 C286.089879,89.4976686 281.458474,78.1603748 273.104375,69.8539587 Z" id="Shape" stroke="#0A0809" fill="#1D1D1B"></path>
            <path d="M336.112003,95.1532868 L380.613147,146.661221 C381.654708,148.017996 381.564268,149.928549 380.399199,151.180869 C379.827026,151.836401 378.996055,152.207894 378.126004,152.197349 C376.55679,152.080011 375.11876,151.277845 374.194713,150.004156 L331.405152,99.9671124 L319.049666,111.787729 L319.049666,148.854186 C319.048095,149.742651 318.668896,150.588559 318.00667,151.180869 C316.633348,152.529855 314.43245,152.529855 313.059127,151.180869 C312.414947,150.577978 312.047392,149.73647 312.042875,148.854186 L312.042875,53.4334646 C312.047392,52.5511808 312.414947,51.7096725 313.059127,51.1067822 C314.43245,49.757796 316.633348,49.757796 318.00667,51.1067822 C318.668896,51.6990919 319.048095,52.5449993 319.049666,53.4334646 L319.049666,103.17633 L371.413391,51.4009604 C372.161603,50.5792213 373.217181,50.1046956 374.32843,50.0898799 C375.183336,50.0729604 376.006964,50.4121011 376.601626,51.0265518 C377.234132,51.664195 377.573178,52.5360292 377.537647,53.4334646 C377.507973,54.4386303 377.096814,55.3948151 376.387678,56.1078122 L336.112003,95.1532868 Z" id="Path" stroke="#0A0809" fill="#1D1D1B"></path>
            <path d="M405.591554,55.760147 C404.820792,54.9898395 404.404336,53.9341715 404.441584,52.8451081 C404.448464,51.8350335 404.863175,50.8705908 405.591554,50.1707605 C406.353549,49.3845995 407.412367,48.9571868 408.506592,48.9940476 C409.521284,49.0048269 410.487464,49.4299462 411.18094,50.1707605 C411.916637,50.867851 412.340751,51.8317478 412.357653,52.8451081 C412.384647,53.9375657 411.958772,54.9925732 411.18094,55.760147 C410.480366,56.4908804 409.518647,56.9140368 408.506592,56.9368599 C407.414715,56.9606688 406.360921,56.5352839 405.591554,55.760147 L405.591554,55.760147 Z M406.393858,84.937279 C407.017487,84.3770875 407.828823,84.0716433 408.667053,84.0811987 C409.497499,84.0704381 410.300901,84.3764961 410.913505,84.937279 C411.54262,85.4901542 411.895056,86.2929247 411.87627,87.1302441 L411.87627,149.148364 C411.887821,149.984234 411.536656,150.78411 410.913505,151.341329 C410.300901,151.902112 409.497499,152.20817 408.667053,152.19741 C407.828823,152.206965 407.017487,151.901521 406.393858,151.341329 C405.786317,150.775217 405.44634,149.9787 405.457836,149.148364 L405.457836,87.1302441 C405.442948,86.2992429 405.783489,85.5014022 406.393858,84.937279 L406.393858,84.937279 Z" id="Shape" stroke="#000000" fill="#1D1D1B"></path>
            <path d="M485.688263,113.980694 C485.688263,104.941399 483.602272,98.5229647 479.43029,94.7253912 C475.158499,91.2562763 469.730163,89.5360291 464.239996,89.9115655 C455.98524,89.5571876 448.286678,94.0654488 444.556798,101.438004 C441.852687,106.506907 440.44687,112.166929 440.465046,117.911985 L440.465046,149.148364 C440.476542,149.9787 440.136565,150.775217 439.529024,151.341329 C438.227863,152.481098 436.283794,152.481098 434.982633,151.341329 C434.375093,150.775217 434.035116,149.9787 434.046143,149.148364 L434.046143,87.1302441 C434.031723,86.2992429 434.372265,85.5014022 434.982633,84.937279 C436.283794,83.7975105 438.227863,83.7975105 439.529024,84.937279 C440.139393,85.5014022 440.479935,86.2992429 440.465046,87.1302441 L440.465046,98.6566821 C445.225385,88.9220569 453.489119,84.0636588 465.256248,84.0814878 C471.967807,83.7206462 478.593086,85.7271592 483.976681,89.7511047 C489.325376,94.4312129 492,101.972873 492,112.376085 L492,149.148364 C492.011275,149.984234 491.66011,150.78411 491.036959,151.341329 C490.424354,151.902112 489.620952,152.20817 488.790507,152.197121 C487.974426,152.21695 487.18448,151.908679 486.597542,151.341329 C486.015155,150.762248 485.696095,149.969432 485.715007,149.148364 L485.688263,113.980694 Z" id="Path" stroke="#000000" fill="#1D1D1B"></path>
            <path d="M430.356012,47.1487478 C428.879011,47.1487478 427.681665,45.9514016 427.681665,44.4744002 C427.717776,40.8815821 426.306483,37.4253953 423.765849,34.8847609 C421.225214,32.3441265 417.769027,30.9328335 414.176209,30.9689449 C413.035154,30.6361372 412.250679,29.5901702 412.250679,28.4015713 C412.250679,27.2129723 413.035154,26.1670053 414.176209,25.8341976 C419.141177,25.8341976 423.902792,27.8065233 427.413554,31.3172855 C430.924317,34.8280477 432.896642,39.5896631 432.896642,44.5546306 C432.856486,45.9498429 431.750085,47.0795361 430.356012,47.1487478 Z" id="Path" stroke="#68B53E" fill="#68B43E"></path>
            <path d="M443.460315,48.2987172 C441.983314,48.2987172 440.785968,47.101371 440.785968,45.6243697 C440.698335,30.6249442 428.560535,18.4871441 413.561109,18.3995113 C412.420054,18.0667036 411.635579,17.0207366 411.635579,15.8321377 C411.635579,14.6435387 412.420054,13.5975717 413.561109,13.264764 C431.479694,13.2942112 445.998242,27.8127584 446.027689,45.7313436 C445.972936,47.1259561 444.854928,48.2439642 443.460315,48.2987172 Z" id="Path" stroke="#68B53E" fill="#68B43E"></path>
            <path d="M456.297184,49.635891 C454.820182,49.635891 453.622836,48.4385448 453.622836,46.9615435 C453.520323,23.9038375 434.853746,5.2372601 411.79604,5.13474735 C410.654985,4.80193965 409.87051,3.7559726 409.87051,2.56737367 C409.87051,1.37877475 410.654985,0.332807698 411.79604,-4.75059561e-15 C437.772948,0.0441659923 458.820391,21.0916092 458.864557,47.0685174 C458.809804,48.4631298 457.691796,49.581138 456.297184,49.635891 Z" id="Path" stroke="#68B53E" fill="#68B43E"></path>
        </g>
    </g>
</svg>