<?xml version="1.0" encoding="UTF-8"?>
<svg width="600px" height="600px" viewBox="0 0 600 600" version="1.1" xmlns="http://www.w3.org/2000/svg" xmlns:xlink="http://www.w3.org/1999/xlink">
    <title>drivers/air-conditioner/assets/icon</title>
    <g id="/drivers/air-conditioner/assets/icon" stroke="none" stroke-width="1" fill="none" fill-rule="evenodd">
        <path d="M517,264.823529 C517,269.870588 512.86383,274 507.808511,274 L94.1914894,274 C89.1361702,274 85,269.870588 85,264.823529 L85,127.176471 C85,122.129412 89.1361702,118 94.1914894,118 L507.808511,118 C512.86383,118 517,122.129412 517,127.176471 L517,264.823529 Z M507.245283,91 C527.460377,91 544,107.513043 544,127.695652 L544,127.695652 L544,265.304348 C544,285.486957 527.460377,302 507.245283,302 L507.245283,302 L93.754717,302 C73.5396226,302 57,285.486957 57,265.304348 L57,265.304348 L57,127.695652 C57,107.513043 73.5396226,91 93.754717,91 L93.754717,91 Z M300.488741,344 C307.942452,344 314,350.141667 314,357.75 L314,495.25 C314,502.858333 307.942452,509 300.488741,509 C293.035029,509 287,502.858333 287,495.25 L287,357.75 C287,350.141667 293.035029,344 300.488741,344 Z M392.853634,343 C400.496223,343 406.707269,349.152592 406.707269,356.803007 L406.707269,367.080371 C406.707269,410.632429 421.599925,453.170577 447.598579,483.772235 C452.539709,489.60222 452.10101,498.658283 446.259395,503.566531 C443.557936,505.870873 440.325421,507 437.115996,507 C433.375515,507 429.681212,505.433048 427.002843,502.322186 C395.855255,465.590979 379,417.798932 379,367.080371 L379,356.803007 C379,349.152592 385.211046,343 392.853634,343 Z M208.166967,343 C215.81093,343 222,349.198679 222,356.82605 L222,367.103414 C222,417.798932 205.164806,465.590979 173.988521,502.299143 C171.332764,505.456091 167.637796,507 163.896642,507 C160.68664,507 157.43045,505.847829 154.728505,503.589574 C148.885838,498.658283 148.470155,489.60222 153.412173,483.772235 C179.392411,453.147534 194.31084,410.655473 194.31084,367.103414 L194.31084,356.82605 C194.31084,349.198679 200.523004,343 208.166967,343 Z M471.231343,209 C478.804104,209 485,215.318068 485,223.011657 C485,230.681932 478.804104,237 471.231343,237 L129.768657,237 C122.195896,237 116,230.681932 116,223.011657 C116,215.318068 122.195896,209 129.768657,209 L471.231343,209 Z" id="Ac" fill="#63BD5C"></path>
    </g>
</svg>