<?xml version="1.0" standalone="no"?>
<!DOCTYPE svg PUBLIC "-//W3C//DTD SVG 20010904//EN"
 "http://www.w3.org/TR/2001/REC-SVG-20010904/DTD/svg10.dtd">
<svg version="1.0" xmlns="http://www.w3.org/2000/svg"
 width="50.000000pt" height="50.000000pt" viewBox="0 0 50.000000 50.000000"
 preserveAspectRatio="xMidYMid meet">
<metadata>
Created by potrace 1.16, written by Peter Selinger 2001-2019
</metadata>
<g transform="translate(0.000000,50.000000) scale(0.100000,-0.100000)"
fill="#000000" stroke="none">
<path d="M200 345 l0 -115 -45 0 c-28 0 -45 -4 -45 -12 0 -20 124 -178 140
-178 16 0 140 158 140 178 0 8 -17 12 -45 12 l-45 0 0 115 0 115 -50 0 -50 0
0 -115z m80 -19 l0 -115 34 -3 35 -3 -47 -62 c-26 -34 -49 -62 -52 -62 -3 0
-26 28 -52 62 l-47 62 35 3 34 3 0 115 0 114 30 0 30 0 0 -114z"/>
</g>
</svg>
