<?xml version="1.0" standalone="no"?>
<!DOCTYPE svg PUBLIC "-//W3C//DTD SVG 20010904//EN"
 "http://www.w3.org/TR/2001/REC-SVG-20010904/DTD/svg10.dtd">
<svg version="1.0" xmlns="http://www.w3.org/2000/svg"
 width="50.000000pt" height="50.000000pt" viewBox="0 0 50.000000 50.000000"
 preserveAspectRatio="xMidYMid meet">
<metadata>
Created by potrace 1.16, written by Peter Selinger 2001-2019
</metadata>
<g transform="translate(0.000000,50.000000) scale(0.100000,-0.100000)"
fill="#000000" stroke="none">
<path d="M123 327 c-46 -34 -83 -69 -83 -77 0 -16 158 -140 178 -140 8 0 12
17 12 45 l0 45 115 0 115 0 0 50 0 50 -115 0 -115 0 0 45 c0 29 -4 45 -12 45
-7 0 -50 -28 -95 -63z m203 -47 l114 0 0 -30 0 -30 -114 0 -115 0 -3 -34 -3
-35 -62 47 c-34 26 -62 49 -62 52 0 3 28 26 62 52 l62 47 3 -35 3 -34 115 0z"/>
</g>
</svg>
