<?xml version="1.0" standalone="no"?>
<!DOCTYPE svg PUBLIC "-//W3C//DTD SVG 20010904//EN"
 "http://www.w3.org/TR/2001/REC-SVG-20010904/DTD/svg10.dtd">
<svg version="1.0" xmlns="http://www.w3.org/2000/svg"
 width="128.000000pt" height="128.000000pt" viewBox="0 0 128.000000 128.000000"
 preserveAspectRatio="xMidYMid meet">
<metadata>
Created by potrace 1.16, written by Peter Selinger 2001-2019
</metadata>
<g transform="translate(0.000000,128.000000) scale(0.100000,-0.100000)"
fill="#000000" stroke="none">
<path d="M523 1253 c-9 -3 -13 -27 -13 -71 l0 -67 -57 -22 -57 -23 -46 45
c-25 25 -50 45 -56 45 -12 0 -174 -162 -174 -175 0 -5 20 -30 45 -55 l45 -46
-23 -57 -22 -57 -66 0 c-52 0 -68 -4 -73 -16 -8 -20 -8 -208 0 -228 5 -12 21
-16 73 -16 l66 0 22 -57 23 -57 -45 -46 c-25 -25 -45 -50 -45 -56 0 -12 162
-174 175 -174 5 0 30 20 55 45 l45 44 58 -21 57 -21 0 -67 c0 -53 4 -69 16
-74 20 -8 208 -8 228 0 12 5 16 21 16 74 l0 67 57 21 58 21 45 -44 c25 -25 50
-45 56 -45 12 0 174 162 174 175 0 5 -20 30 -45 55 l-44 45 21 58 21 57 67 0
c53 0 69 4 74 16 8 20 8 208 0 228 -5 12 -21 16 -73 16 l-66 0 -22 57 -23 57
45 46 c25 25 45 50 45 56 0 12 -162 174 -175 174 -5 0 -30 -20 -55 -45 l-46
-45 -57 23 -57 22 0 66 c0 52 -4 68 -16 73 -19 7 -213 7 -231 -1z m187 -118
c0 -62 1 -66 28 -76 15 -6 51 -22 80 -35 29 -13 60 -24 70 -24 10 0 36 18 57
40 l39 40 48 -47 48 -47 -40 -41 c-22 -22 -40 -48 -40 -58 0 -9 11 -40 24 -69
13 -29 29 -65 35 -80 10 -27 14 -28 76 -28 l65 0 0 -70 0 -70 -65 0 c-62 0
-66 -1 -76 -27 -6 -16 -22 -52 -35 -81 -13 -29 -24 -60 -24 -70 0 -10 18 -36
40 -57 l40 -39 -47 -48 -47 -48 -41 40 c-22 22 -48 40 -58 40 -9 0 -40 -11
-69 -24 -29 -13 -65 -29 -80 -35 -27 -10 -28 -14 -28 -76 l0 -65 -70 0 -70 0
0 65 c0 62 -1 66 -27 76 -16 6 -52 22 -81 35 -29 13 -60 24 -69 24 -10 0 -36
-18 -58 -40 l-41 -40 -47 48 -47 48 40 39 c22 21 40 47 40 57 0 10 -11 41 -24
70 -13 29 -29 65 -35 81 -10 26 -14 27 -76 27 l-65 0 0 70 0 70 65 0 c62 0 66
1 76 28 6 15 22 51 35 80 13 29 24 60 24 70 0 10 -18 36 -40 57 l-40 39 47 48
47 48 41 -40 c22 -22 48 -40 58 -40 9 0 40 11 69 24 29 13 65 29 81 35 26 10
27 14 27 76 l0 65 70 0 70 0 0 -65z"/>
<path d="M560 1020 c-75 -16 -145 -57 -203 -120 -74 -80 -100 -147 -100 -260
0 -122 26 -185 112 -271 86 -86 149 -112 271 -112 122 0 185 26 271 112 86 86
112 149 112 271 0 122 -26 185 -112 271 -49 49 -81 71 -123 87 -68 25 -166 35
-228 22z m195 -77 c36 -12 67 -33 111 -77 69 -70 97 -134 97 -226 0 -92 -28
-156 -97 -226 -70 -70 -135 -98 -226 -98 -91 0 -156 28 -226 98 -46 46 -65 75
-79 116 -38 115 -15 234 61 319 100 111 216 142 359 94z"/>
</g>
</svg>
